<svg width="43" height="43" viewBox="0 0 43 43" fill="none" xmlns="http://www.w3.org/2000/svg">
<rect width="43" height="43" rx="4.08029" fill="#171821"/>
<path d="M31.3034 29.1391L32.7225 22.0437H35.1957C35.9796 22.0437 36.5878 22.216 37.0203 22.5606C37.4528 22.8985 37.669 23.3783 37.669 24C37.669 24.6082 37.5372 25.1217 37.2737 25.5407C37.0102 25.9597 36.6317 26.2773 36.1384 26.4935C35.6519 26.7098 35.0741 26.8179 34.4051 26.8179H32.0535L32.3373 26.5746L31.8203 29.1391H31.3034ZM32.3271 26.605L32.1447 26.3516H34.4051C35.2768 26.3516 35.9492 26.159 36.4222 25.7738C36.902 25.3819 37.1419 24.8041 37.1419 24.0405C37.1419 23.5472 36.9696 23.1688 36.625 22.9052C36.2871 22.6417 35.8005 22.5099 35.1653 22.5099H32.9252L33.1989 22.2464L32.3271 26.605Z" fill="#A9DFD8"/>
<path d="M26.697 29.1898C26.001 29.1898 25.4097 29.0681 24.9232 28.8249C24.4434 28.5816 24.0751 28.2403 23.8183 27.8011C23.5615 27.3619 23.4331 26.8517 23.4331 26.2705C23.4331 25.6961 23.5311 25.1521 23.7271 24.6386C23.923 24.125 24.2068 23.6688 24.5785 23.2701C24.9502 22.8714 25.4029 22.5606 25.9368 22.3376C26.4706 22.1078 27.0721 21.993 27.7411 21.993C28.3087 21.993 28.8121 22.0808 29.2514 22.2565C29.6906 22.4254 30.0353 22.6653 30.2853 22.9762L29.9204 23.3005C29.6771 23.0167 29.3696 22.8072 28.998 22.6721C28.6331 22.5369 28.204 22.4694 27.7107 22.4694C27.1363 22.4694 26.6159 22.5674 26.1497 22.7633C25.6901 22.9593 25.2948 23.233 24.9637 23.5844C24.6393 23.929 24.3893 24.3311 24.2136 24.7906C24.0379 25.2501 23.9501 25.7367 23.9501 26.2502C23.9501 26.7368 24.0548 27.1659 24.2643 27.5376C24.4738 27.9092 24.7846 28.1998 25.1968 28.4093C25.6158 28.612 26.1361 28.7134 26.7578 28.7134C27.2038 28.7134 27.6093 28.6424 27.9742 28.5005C28.3391 28.3518 28.677 28.1424 28.9878 27.8721L29.2007 28.2876C28.8899 28.5647 28.5148 28.7843 28.0756 28.9465C27.6431 29.1087 27.1836 29.1898 26.697 29.1898ZM28.7142 28.2268L29.2412 25.6218H29.7379L29.2007 28.2876L28.7142 28.2268Z" fill="#A9DFD8"/>
<path d="M19.2633 29.1898C18.9186 29.1898 18.5808 29.1492 18.2496 29.0681C17.9253 28.9803 17.6313 28.8654 17.3678 28.7235C17.111 28.5816 16.9082 28.4228 16.7596 28.2471L17.0333 27.8518C17.1819 28.0207 17.3745 28.1728 17.611 28.3079C17.8543 28.4431 18.1212 28.5478 18.4118 28.6221C18.7091 28.6965 19.0065 28.7336 19.3038 28.7336C19.7431 28.7336 20.1316 28.6728 20.4695 28.5512C20.8141 28.4296 21.0811 28.2539 21.2703 28.0241C21.4595 27.7876 21.5541 27.5004 21.5541 27.1625C21.5541 26.9125 21.4831 26.7097 21.3412 26.5543C21.2061 26.3989 21.027 26.2705 20.804 26.1691C20.5878 26.0678 20.3445 25.9833 20.0742 25.9157C19.8106 25.8414 19.5437 25.7603 19.2734 25.6725C19.0099 25.5846 18.7666 25.4799 18.5436 25.3582C18.3273 25.2298 18.1483 25.0643 18.0064 24.8616C17.8712 24.6588 17.8036 24.402 17.8036 24.0912C17.8036 23.6452 17.9219 23.2668 18.1584 22.9559C18.4017 22.6451 18.7294 22.4085 19.1416 22.2464C19.5538 22.0774 20.0235 21.993 20.5506 21.993C20.956 21.993 21.348 22.047 21.7264 22.1551C22.1048 22.2565 22.4258 22.4085 22.6894 22.6113L22.4461 23.037C22.1961 22.8478 21.9055 22.7025 21.5744 22.6011C21.2432 22.4998 20.8952 22.4491 20.5303 22.4491C20.0978 22.4491 19.7126 22.5133 19.3748 22.6417C19.0436 22.7633 18.7835 22.9424 18.5943 23.1789C18.4118 23.4154 18.3206 23.7026 18.3206 24.0405C18.3206 24.2905 18.3882 24.4966 18.5233 24.6588C18.6585 24.8142 18.8342 24.946 19.0504 25.0541C19.2734 25.1555 19.5201 25.2434 19.7904 25.3177C20.0607 25.392 20.3276 25.4731 20.5911 25.561C20.8547 25.6421 21.0979 25.7468 21.3209 25.8752C21.5439 25.9968 21.723 26.1556 21.8582 26.3516C22.0001 26.5476 22.071 26.7976 22.071 27.1017C22.071 27.5544 21.946 27.9363 21.696 28.2471C21.4527 28.5579 21.1182 28.7945 20.6925 28.9566C20.2735 29.1121 19.7971 29.1898 19.2633 29.1898Z" fill="#A9DFD8"/>
<path d="M36.8407 20.655C36.5548 20.655 36.303 20.5991 36.0855 20.4872C35.871 20.3753 35.7048 20.223 35.5867 20.0304C35.4686 19.8346 35.4095 19.6123 35.4095 19.3637C35.4095 19.112 35.467 18.8898 35.582 18.6971C35.7001 18.5013 35.8602 18.349 36.0622 18.2402C36.2642 18.1283 36.4926 18.0724 36.7474 18.0724C36.993 18.0724 37.2136 18.1252 37.4094 18.2309C37.6083 18.3335 37.7653 18.4826 37.8803 18.6784C37.9953 18.8711 38.0528 19.1027 38.0528 19.373C38.0528 19.401 38.0512 19.4336 38.0481 19.4709C38.045 19.5051 38.0419 19.5378 38.0388 19.5688H36.0016V19.1446H37.6565L37.3768 19.2705C37.3768 19.1399 37.3504 19.0265 37.2975 18.9302C37.2447 18.8338 37.1717 18.7592 37.0784 18.7064C36.9852 18.6505 36.8764 18.6225 36.7521 18.6225C36.6278 18.6225 36.5175 18.6505 36.4211 18.7064C36.3279 18.7592 36.2549 18.8354 36.202 18.9348C36.1492 19.0312 36.1228 19.1462 36.1228 19.2798V19.3917C36.1228 19.5284 36.1523 19.6496 36.2113 19.7553C36.2735 19.8579 36.359 19.9371 36.4677 19.9931C36.5796 20.0459 36.7102 20.0723 36.8593 20.0723C36.993 20.0723 37.1095 20.0521 37.209 20.0117C37.3115 19.9713 37.4048 19.9107 37.4887 19.8299L37.8756 20.2495C37.7606 20.38 37.6161 20.481 37.4421 20.5525C37.268 20.6208 37.0676 20.655 36.8407 20.655Z" fill="#A9DFD8"/>
<path d="M33.9003 18.0724C34.0992 18.0724 34.2748 18.1128 34.4271 18.1936C34.5825 18.2713 34.7037 18.3925 34.7907 18.5572C34.8809 18.7188 34.9259 18.9271 34.9259 19.1819V20.6177H34.1987V19.2938C34.1987 19.0918 34.1567 18.9426 34.0728 18.8463C33.9889 18.7499 33.8708 18.7017 33.7185 18.7017C33.6129 18.7017 33.5181 18.7266 33.4341 18.7763C33.3502 18.8229 33.285 18.8944 33.2384 18.9908C33.1917 19.0871 33.1684 19.2099 33.1684 19.3591V20.6177H32.4412V19.2938C32.4412 19.0918 32.3992 18.9426 32.3153 18.8463C32.2345 18.7499 32.118 18.7017 31.9657 18.7017C31.86 18.7017 31.7652 18.7266 31.6813 18.7763C31.5974 18.8229 31.5321 18.8944 31.4855 18.9908C31.4389 19.0871 31.4156 19.2099 31.4156 19.3591V20.6177H30.6884V18.1097H31.383V18.795L31.2524 18.5945C31.3395 18.4236 31.4622 18.2946 31.6207 18.2076C31.7823 18.1175 31.9657 18.0724 32.1708 18.0724C32.4008 18.0724 32.6012 18.1314 32.7722 18.2495C32.9462 18.3645 33.0612 18.5417 33.1171 18.781L32.8607 18.7111C32.9447 18.5153 33.0783 18.3599 33.2617 18.2449C33.4481 18.1299 33.661 18.0724 33.9003 18.0724Z" fill="#A9DFD8"/>
<path d="M29.2862 20.6177V18.1097H30.0134V20.6177H29.2862ZM29.6498 17.7601C29.5162 17.7601 29.4074 17.7212 29.3235 17.6435C29.2396 17.5658 29.1976 17.4695 29.1976 17.3545C29.1976 17.2395 29.2396 17.1431 29.3235 17.0655C29.4074 16.9878 29.5162 16.9489 29.6498 16.9489C29.7834 16.9489 29.8922 16.9862 29.9761 17.0608C30.06 17.1323 30.102 17.2255 30.102 17.3405C30.102 17.4617 30.06 17.5627 29.9761 17.6435C29.8953 17.7212 29.7865 17.7601 29.6498 17.7601Z" fill="#A9DFD8"/>
<path d="M27.2922 20.6177V18.1097H27.9868V18.8183L27.8889 18.6132C27.9635 18.436 28.0831 18.3024 28.2478 18.2123C28.4126 18.119 28.613 18.0724 28.8492 18.0724V18.7437C28.8181 18.7406 28.7902 18.739 28.7653 18.739C28.7404 18.7359 28.714 18.7344 28.6861 18.7344C28.4871 18.7344 28.3255 18.7919 28.2012 18.9069C28.08 19.0187 28.0194 19.1943 28.0194 19.4336V20.6177H27.2922Z" fill="#A9DFD8"/>
<path d="M23.9791 20.6177V17.3545H25.3916C25.6838 17.3545 25.9355 17.4027 26.1469 17.499C26.3582 17.5922 26.5214 17.7274 26.6363 17.9046C26.7513 18.0817 26.8088 18.2931 26.8088 18.5386C26.8088 18.781 26.7513 18.9908 26.6363 19.1679C26.5214 19.3451 26.3582 19.4818 26.1469 19.5782C25.9355 19.6714 25.6838 19.718 25.3916 19.718H24.3987L24.7343 19.3777V20.6177H23.9791ZM24.7343 19.4616L24.3987 19.1027H25.3497C25.5828 19.1027 25.7568 19.0529 25.8718 18.9535C25.9868 18.854 26.0443 18.7157 26.0443 18.5386C26.0443 18.3583 25.9868 18.2185 25.8718 18.119C25.7568 18.0196 25.5828 17.9698 25.3497 17.9698H24.3987L24.7343 17.6109V19.4616Z" fill="#A9DFD8"/>
<path d="M21.7857 20.655C21.5774 20.655 21.391 20.6146 21.2262 20.5338C21.0646 20.453 20.9388 20.3303 20.8486 20.1655C20.7585 19.9977 20.7134 19.7848 20.7134 19.5269V18.1097H21.4407V19.4197C21.4407 19.6279 21.4842 19.7817 21.5712 19.8812C21.6613 19.9775 21.7872 20.0257 21.9488 20.0257C22.0607 20.0257 22.1601 20.0024 22.2472 19.9558C22.3342 19.906 22.4026 19.8314 22.4523 19.732C22.502 19.6294 22.5269 19.502 22.5269 19.3497V18.1097H23.2541V20.6177H22.5642V19.9278L22.69 20.1282C22.6061 20.3023 22.4818 20.4344 22.3171 20.5245C22.1555 20.6115 21.9783 20.655 21.7857 20.655Z" fill="#D2D2D2"/>
<path d="M18.7198 20.6177V18.1097H19.4144V18.8183L19.3165 18.6132C19.3911 18.436 19.5107 18.3024 19.6754 18.2123C19.8401 18.119 20.0406 18.0724 20.2768 18.0724V18.7437C20.2457 18.7406 20.2177 18.739 20.1929 18.739C20.168 18.7359 20.1416 18.7344 20.1136 18.7344C19.9147 18.7344 19.7531 18.7919 19.6288 18.9069C19.5076 19.0187 19.447 19.1943 19.447 19.4336V20.6177H18.7198Z" fill="#D2D2D2"/>
<path d="M17.7195 20.655C17.4242 20.655 17.1943 20.5804 17.0295 20.4313C16.8648 20.279 16.7825 20.0537 16.7825 19.7553V17.5549H17.5097V19.746C17.5097 19.8516 17.5377 19.934 17.5936 19.9931C17.6496 20.049 17.7257 20.077 17.822 20.077C17.937 20.077 18.0349 20.0459 18.1157 19.9837L18.3115 20.4965C18.2369 20.5494 18.1468 20.5898 18.0412 20.6177C17.9386 20.6426 17.8314 20.655 17.7195 20.655ZM16.3955 18.725V18.1656H18.1344V18.725H16.3955Z" fill="#D2D2D2"/>
<path d="M15.0611 20.655C14.8466 20.655 14.64 20.6302 14.4411 20.5804C14.2453 20.5276 14.0899 20.4623 13.9749 20.3846L14.2173 19.8625C14.3323 19.934 14.4675 19.9931 14.6229 20.0397C14.7814 20.0832 14.9368 20.1049 15.0891 20.1049C15.2569 20.1049 15.375 20.0847 15.4433 20.0443C15.5148 20.0039 15.5506 19.948 15.5506 19.8765C15.5506 19.8175 15.5226 19.774 15.4667 19.746C15.4138 19.7149 15.3423 19.6916 15.2522 19.6761C15.1621 19.6605 15.0626 19.645 14.9539 19.6294C14.8482 19.6139 14.741 19.5937 14.6322 19.5688C14.5234 19.5409 14.424 19.5005 14.3338 19.4476C14.2437 19.3948 14.1707 19.3233 14.1147 19.2332C14.0619 19.1431 14.0355 19.0265 14.0355 18.8836C14.0355 18.725 14.0806 18.5852 14.1707 18.464C14.2639 18.3428 14.3976 18.248 14.5716 18.1796C14.7456 18.1081 14.9539 18.0724 15.1963 18.0724C15.3672 18.0724 15.5412 18.091 15.7184 18.1283C15.8955 18.1656 16.0432 18.22 16.1613 18.2915L15.9189 18.809C15.7976 18.7375 15.6749 18.6893 15.5506 18.6644C15.4294 18.6365 15.3113 18.6225 15.1963 18.6225C15.0347 18.6225 14.9166 18.6442 14.842 18.6878C14.7674 18.7313 14.7301 18.7872 14.7301 18.8556C14.7301 18.9177 14.7565 18.9644 14.8093 18.9954C14.8653 19.0265 14.9383 19.0514 15.0284 19.07C15.1186 19.0887 15.2165 19.1058 15.3221 19.1213C15.4309 19.1337 15.5397 19.1539 15.6485 19.1819C15.7572 19.2099 15.8551 19.2503 15.9422 19.3031C16.0323 19.3528 16.1053 19.4228 16.1613 19.5129C16.2172 19.5999 16.2452 19.7149 16.2452 19.8579C16.2452 20.0133 16.1986 20.1516 16.1053 20.2728C16.0121 20.3909 15.8769 20.4841 15.6997 20.5525C15.5257 20.6208 15.3128 20.655 15.0611 20.655Z" fill="#D2D2D2"/>
<path d="M12.5185 18.0724C12.7174 18.0724 12.8946 18.1128 13.05 18.1936C13.2085 18.2713 13.3328 18.3925 13.4229 18.5572C13.513 18.7188 13.5581 18.9271 13.5581 19.1819V20.6177H12.8309V19.2938C12.8309 19.0918 12.7858 18.9426 12.6957 18.8463C12.6086 18.7499 12.4843 18.7017 12.3227 18.7017C12.2077 18.7017 12.1036 18.7266 12.0104 18.7763C11.9203 18.8229 11.8488 18.896 11.7959 18.9954C11.7462 19.0949 11.7213 19.2223 11.7213 19.3777V20.6177H10.9941V18.1097H11.6887V18.8043L11.5582 18.5945C11.6483 18.4267 11.7773 18.2977 11.9451 18.2076C12.1129 18.1175 12.3041 18.0724 12.5185 18.0724Z" fill="#D2D2D2"/>
<path d="M9.13279 20.655C8.86551 20.655 8.62776 20.5991 8.41954 20.4872C8.21442 20.3753 8.05125 20.223 7.93005 20.0304C7.81195 19.8346 7.7529 19.6123 7.7529 19.3637C7.7529 19.112 7.81195 18.8898 7.93005 18.6971C8.05125 18.5013 8.21442 18.349 8.41954 18.2402C8.62776 18.1283 8.86551 18.0724 9.13279 18.0724C9.39696 18.0724 9.63315 18.1283 9.84138 18.2402C10.0496 18.349 10.2128 18.4997 10.3309 18.6924C10.449 18.8851 10.508 19.1089 10.508 19.3637C10.508 19.6123 10.449 19.8346 10.3309 20.0304C10.2128 20.223 10.0496 20.3753 9.84138 20.4872C9.63315 20.5991 9.39696 20.655 9.13279 20.655ZM9.13279 20.0583C9.254 20.0583 9.36277 20.0304 9.45911 19.9744C9.55546 19.9185 9.6316 19.8392 9.68754 19.7367C9.74348 19.631 9.77145 19.5067 9.77145 19.3637C9.77145 19.2176 9.74348 19.0933 9.68754 18.9908C9.6316 18.8882 9.55546 18.809 9.45911 18.753C9.36277 18.6971 9.254 18.6691 9.13279 18.6691C9.01158 18.6691 8.90281 18.6971 8.80646 18.753C8.71012 18.809 8.63242 18.8882 8.57337 18.9908C8.51743 19.0933 8.48946 19.2176 8.48946 19.3637C8.48946 19.5067 8.51743 19.631 8.57337 19.7367C8.63242 19.8392 8.71012 19.9185 8.80646 19.9744C8.90281 20.0304 9.01158 20.0583 9.13279 20.0583Z" fill="#D2D2D2"/>
<path d="M6.21988 20.6737C5.96815 20.6737 5.7335 20.6333 5.51595 20.5525C5.30151 20.4686 5.11504 20.3505 4.95654 20.1982C4.79804 20.0459 4.67372 19.8672 4.58359 19.6621C4.49657 19.4569 4.45306 19.2316 4.45306 18.9861C4.45306 18.7406 4.49657 18.5153 4.58359 18.3101C4.67372 18.105 4.79804 17.9263 4.95654 17.774C5.11815 17.6218 5.30617 17.5052 5.52061 17.4244C5.73506 17.3405 5.9697 17.2985 6.22454 17.2985C6.50736 17.2985 6.7622 17.3483 6.98908 17.4477C7.21906 17.5441 7.41175 17.687 7.56714 17.8766L7.08231 18.3241C6.97043 18.1967 6.84612 18.1019 6.70937 18.0398C6.57262 17.9745 6.42345 17.9419 6.26184 17.9419C6.10955 17.9419 5.9697 17.9667 5.84228 18.0165C5.71486 18.0662 5.60453 18.1377 5.51129 18.2309C5.41805 18.3241 5.34502 18.4345 5.29219 18.5619C5.24246 18.6893 5.2176 18.8307 5.2176 18.9861C5.2176 19.1415 5.24246 19.2829 5.29219 19.4103C5.34502 19.5377 5.41805 19.6481 5.51129 19.7413C5.60453 19.8345 5.71486 19.906 5.84228 19.9558C5.9697 20.0055 6.10955 20.0303 6.26184 20.0303C6.42345 20.0303 6.57262 19.9993 6.70937 19.9371C6.84612 19.8718 6.97043 19.7739 7.08231 19.6434L7.56714 20.0909C7.41175 20.2805 7.21906 20.425 6.98908 20.5245C6.7622 20.6239 6.50581 20.6737 6.21988 20.6737Z" fill="#D2D2D2"/>
</svg>
